<?xml version="1.0" standalone="no"?>
<!DOCTYPE svg PUBLIC "-//W3C//DTD SVG 20010904//EN"
 "http://www.w3.org/TR/2001/REC-SVG-20010904/DTD/svg10.dtd">
<svg version="1.0" xmlns="http://www.w3.org/2000/svg"
 width="1083.000000pt" height="1083.000000pt" viewBox="0 0 1083.000000 1083.000000"
 preserveAspectRatio="xMidYMid meet">
<metadata>
Created by potrace 1.14, written by Peter Selinger 2001-2017
</metadata>
<g transform="translate(0.000000,1083.000000) scale(0.100000,-0.100000)"
fill="#000000" stroke="none">
<path d="M5650 10578 c-13 -29 -152 -312 -308 -628 -156 -316 -351 -710 -432
-875 -81 -165 -239 -484 -350 -710 -111 -225 -280 -567 -375 -760 -95 -192
-260 -528 -367 -745 -789 -1597 -1128 -2287 -1136 -2305 -4 -11 5 -1 63 71 22
27 42 51 45 54 5 4 72 85 122 145 37 44 743 893 778 935 21 25 100 119 175
210 188 226 208 251 220 264 6 6 40 47 75 91 36 44 70 85 75 91 6 6 140 167
299 357 159 191 292 347 296 347 4 0 7 -6 7 -12 1 -27 15 -154 18 -168 2 -8 7
-44 10 -80 3 -36 8 -72 10 -80 2 -8 7 -44 10 -80 4 -36 8 -76 10 -90 2 -14 7
-54 10 -90 4 -36 9 -73 10 -82 2 -9 7 -48 10 -85 4 -37 9 -76 10 -85 2 -9 7
-48 10 -85 4 -37 9 -76 10 -85 2 -9 7 -48 10 -85 4 -37 8 -75 10 -83 2 -8 7
-40 10 -70 3 -30 8 -71 10 -90 17 -139 27 -219 30 -245 2 -16 6 -58 10 -93 3
-35 8 -71 10 -80 1 -9 6 -51 10 -92 4 -41 9 -77 10 -80 2 -3 6 -37 10 -75 3
-39 8 -81 10 -95 4 -25 10 -77 21 -168 3 -26 7 -63 9 -82 3 -19 7 -57 10 -85
3 -27 8 -66 10 -85 3 -19 7 -57 10 -85 3 -27 10 -84 15 -125 5 -41 12 -95 15
-120 3 -25 14 -121 26 -215 11 -93 22 -190 25 -215 2 -25 7 -63 10 -85 3 -22
7 -53 9 -70 3 -34 11 -104 25 -215 5 -41 12 -102 15 -135 4 -33 8 -71 10 -85
2 -14 6 -50 10 -80 4 -30 8 -66 10 -80 2 -14 6 -47 9 -75 3 -27 8 -70 12 -95
3 -25 7 -58 8 -75 14 -121 18 -164 22 -190 2 -16 8 -68 14 -115 13 -107 19
-156 25 -200 2 -19 7 -56 10 -82 3 -27 7 -67 10 -90 10 -84 14 -114 20 -173 3
-33 8 -69 10 -80 2 -11 7 -51 10 -90 3 -38 8 -77 10 -85 2 -8 7 -46 11 -85 3
-38 8 -79 10 -90 3 -11 7 -42 9 -70 9 -82 13 -117 20 -170 7 -56 12 -97 20
-170 3 -27 8 -66 10 -85 3 -19 9 -75 15 -125 6 -49 13 -108 16 -130 3 -22 7
-53 9 -70 5 -54 16 -150 20 -175 2 -14 7 -50 10 -80 4 -30 8 -68 10 -85 2 -16
7 -59 10 -95 4 -36 9 -67 11 -69 5 -5 4 -191 9 2234 11 5697 15 8165 12 8165
-2 0 -14 -24 -27 -52z"/>
<path d="M2462 9056 c-23 -35 -238 -481 -233 -483 9 -4 820 -183 826 -183 4 0
60 109 125 243 l118 242 -71 18 c-63 15 -173 40 -232 53 -11 2 -134 30 -273
62 -173 40 -255 55 -260 48z"/>
<path d="M3420 8718 c-29 -62 -82 -171 -117 -242 -35 -70 -63 -129 -63 -131 0
-2 42 -13 93 -25 50 -11 103 -24 117 -27 14 -3 32 -8 40 -9 8 -2 65 -15 125
-29 127 -29 240 -54 273 -61 13 -3 60 -13 105 -24 44 -11 82 -18 83 -17 2 2
155 319 206 427 31 66 42 58 -142 101 -74 17 -142 32 -150 34 -8 2 -46 11 -85
19 -38 9 -146 34 -240 56 -93 22 -175 40 -181 40 -5 0 -34 -51 -64 -112z"/>
<path d="M6133 8102 c-142 -298 -183 -385 -181 -387 3 -1 314 -73 353 -81 11
-2 124 -28 250 -58 127 -30 231 -53 232 -52 5 4 233 479 233 485 0 4 -42 17
-92 29 -51 12 -140 32 -198 45 -211 50 -378 88 -396 91 -11 2 -39 9 -64 16
-90 24 -81 30 -137 -88z"/>
<path d="M7081 7728 l-118 -243 36 -12 c20 -6 160 -39 311 -73 151 -33 311
-69 355 -80 122 -29 134 -29 150 0 24 41 215 441 215 450 0 11 -17 16 -150 45
-8 2 -64 15 -125 29 -101 24 -400 93 -435 101 -8 2 -35 8 -60 14 -25 6 -49 11
-53 11 -4 0 -61 -109 -126 -242z"/>
<path d="M3926 4938 c-11 -17 -106 -234 -106 -242 0 -1 60 -1 133 -1 127 0
134 -1 191 -30 77 -40 127 -99 187 -219 27 -55 47 -101 45 -103 -2 -2 -987 -4
-2190 -4 l-2186 0 0 -117 0 -117 525 0 c346 0 526 -3 528 -10 2 -5 2 -32 1
-60 -1 -36 -5 -50 -15 -48 -8 1 -50 9 -94 18 -82 16 -215 18 -288 4 -72 -14
-81 -17 -141 -39 -153 -58 -258 -148 -320 -274 -42 -88 -55 -147 -51 -241 5
-116 70 -284 104 -269 71 30 158 54 246 69 41 7 253 7 290 0 153 -28 233 -56
292 -101 42 -32 73 -80 73 -114 0 -31 -36 -92 -70 -118 -58 -44 -93 -56 -175
-56 -182 0 -283 80 -318 253 l-13 61 -134 -91 c-74 -50 -142 -94 -149 -99 -12
-7 -10 -14 12 -43 68 -90 180 -170 291 -207 l61 -21 109 -167 c61 -92 111
-169 112 -171 4 -4 334 -4 339 1 2 2 -52 75 -120 163 -68 88 -124 163 -125
167 0 3 15 9 33 13 132 26 288 99 359 168 72 70 92 114 93 202 0 59 -5 81 -32
135 -67 136 -237 260 -423 310 -188 50 -474 23 -692 -65 -54 -22 19 133 94
200 86 78 193 115 339 119 211 6 497 -78 624 -182 l30 -25 5 259 5 259 323 0
c177 0 322 -3 322 -6 0 -3 -58 -33 -129 -65 l-128 -60 44 -59 c51 -69 125
-217 147 -293 20 -71 17 -198 -7 -233 -24 -35 -75 -61 -99 -48 -15 8 -165 201
-199 257 -8 12 -18 22 -22 22 -12 0 -127 -101 -127 -112 0 -5 104 -173 232
-373 l232 -365 169 0 169 0 -57 68 c-125 150 -285 351 -285 359 0 5 13 10 29
11 65 5 156 50 193 96 l16 20 64 -22 c124 -44 286 -34 400 23 27 14 52 25 54
25 2 0 4 -130 4 -290 l0 -290 173 0 172 0 0 665 c0 366 2 666 5 666 7 2 720 4
720 3 0 -2 -139 -69 -210 -101 -30 -14 -57 -27 -59 -29 -2 -1 12 -22 31 -46
142 -179 214 -432 152 -538 -18 -29 -78 -62 -99 -53 -5 2 -57 67 -115 143 -58
77 -108 140 -111 140 -5 0 -38 -27 -128 -106 -1 -1 81 -137 185 -301 103 -164
201 -320 218 -348 65 -106 41 -96 230 -93 l167 3 -143 180 c-79 99 -155 196
-170 216 -27 36 -27 36 -5 36 35 -1 107 23 147 48 63 40 123 127 136 199 43
237 6 439 -110 609 -14 21 -26 39 -26 40 0 1 89 2 198 2 l197 0 2 -650 c1
-358 2 -658 3 -667 0 -16 15 -18 173 -18 l172 0 0 667 0 668 90 0 90 0 1 105
c0 58 -2 111 -4 118 -3 9 -19 13 -46 12 -22 -1 -77 -1 -121 -1 l-80 1 -37 108
c-83 245 -173 383 -292 451 -69 39 -115 51 -223 57 -88 5 -92 4 -107 -18z
m-1178 -1031 c2 -180 1 -200 -17 -236 -28 -54 -98 -113 -194 -160 -74 -37
-229 -82 -242 -70 -2 3 0 32 5 65 14 80 10 209 -8 297 -16 80 -70 203 -113
258 -16 20 -27 38 -25 40 3 2 136 4 298 4 l293 0 3 -198z"/>
<path d="M6217 4799 c-39 -10 -94 -54 -112 -89 -65 -126 27 -285 164 -283 58
1 90 14 134 53 40 35 59 80 59 143 0 57 -13 86 -57 129 -50 48 -119 65 -188
47z"/>
<path d="M5922 4215 l1 -115 651 -1 651 -1 -71 -22 c-229 -73 -400 -222 -507
-441 -36 -73 -100 -236 -95 -241 2 -2 96 -6 209 -9 112 -3 220 -7 239 -9 19
-2 67 -7 105 -11 87 -8 176 -30 229 -57 73 -37 170 -104 209 -144 38 -38 83
-112 74 -120 -2 -3 -177 -5 -389 -5 l-384 0 -135 -135 -134 -134 463 0 462 0
96 81 c355 298 388 496 112 672 -55 36 -148 78 -203 92 -16 5 -34 9 -40 11
-34 10 -89 19 -180 29 -22 3 -112 7 -200 11 -88 3 -162 7 -163 9 -2 2 10 24
27 49 17 24 31 49 31 55 0 6 5 11 10 11 6 0 10 6 10 13 0 15 55 69 86 85 25
13 87 17 134 8 94 -19 303 -108 470 -201 l45 -25 135 136 134 136 -24 18 c-14
11 -79 46 -145 79 l-120 61 1558 0 1557 0 0 115 0 115 -2454 0 -2454 0 0 -115z"/>
<path d="M6135 3920 l-30 -5 0 -570 0 -570 165 -3 165 -2 0 575 0 575 -35 1
c-19 0 -80 1 -135 2 -55 1 -114 0 -130 -3z"/>
<path d="M8159 3920 c-1 -3 -2 -263 -3 -577 l-1 -573 167 0 168 0 0 390 0 390
37 15 c116 49 291 56 375 16 85 -41 120 -91 143 -206 6 -33 11 -83 10 -112 -1
-29 3 -49 8 -46 5 3 69 64 143 136 l134 130 -5 76 c-16 252 -198 382 -443 318
-112 -30 -292 -131 -369 -207 l-33 -32 0 141 c0 127 -2 141 -17 142 -79 4
-313 3 -314 -1z"/>
<path d="M9535 3922 l-30 -3 1 -457 c1 -451 1 -458 24 -516 12 -33 40 -78 62
-102 68 -73 85 -75 638 -72 l475 3 0 420 c0 231 -3 444 -7 473 -16 105 -97
217 -174 242 -26 9 -169 13 -498 14 -254 0 -475 0 -491 -2z m845 -322 c5 -8
10 -22 10 -30 1 -18 1 -435 1 -467 l-1 -23 -277 0 c-153 0 -284 4 -292 9 -12
8 -14 52 -13 253 1 133 1 250 2 258 0 23 556 23 570 0z"/>
</g>
</svg>
