<?xml version="1.0" standalone="no"?>
<!DOCTYPE svg PUBLIC "-//W3C//DTD SVG 20010904//EN"
 "http://www.w3.org/TR/2001/REC-SVG-20010904/DTD/svg10.dtd">
<svg version="1.0" xmlns="http://www.w3.org/2000/svg"
 width="1083.000000pt" height="1083.000000pt" viewBox="0 0 1083.000000 1083.000000"
 preserveAspectRatio="xMidYMid meet">
<metadata>
Created by potrace 1.14, written by Peter Selinger 2001-2017
</metadata>
<g transform="translate(0.000000,1083.000000) scale(0.100000,-0.100000)"
fill="#000000" stroke="none">
<path d="M5139 10746 c-2 -2 -53 -7 -114 -10 -60 -4 -126 -8 -145 -11 -19 -2
-62 -6 -95 -10 -76 -8 -174 -21 -225 -30 -8 -1 -49 -8 -90 -15 -60 -10 -206
-40 -362 -75 -82 -18 -406 -115 -488 -145 -30 -12 -75 -28 -100 -37 -86 -29
-186 -70 -360 -148 -408 -182 -843 -454 -1200 -749 -235 -194 -494 -448 -670
-656 -30 -36 -57 -67 -60 -70 -5 -5 -151 -192 -209 -270 -54 -71 -191 -279
-266 -405 -73 -121 -250 -460 -288 -550 -9 -22 -36 -88 -61 -146 -53 -127
-138 -361 -167 -462 -50 -174 -83 -297 -94 -350 -2 -10 -6 -26 -9 -35 -3 -9
-7 -28 -10 -42 -2 -14 -11 -59 -20 -100 -8 -41 -18 -91 -21 -110 -3 -19 -7
-46 -10 -60 -3 -14 -7 -38 -9 -55 -2 -16 -8 -50 -11 -74 -4 -24 -9 -58 -10
-75 -9 -79 -16 -143 -20 -161 -27 -138 -27 -898 0 -1110 2 -16 7 -57 10 -90 3
-33 8 -71 10 -85 2 -14 6 -45 9 -70 3 -25 8 -56 11 -70 2 -13 7 -42 10 -65 12
-84 67 -336 106 -485 39 -149 145 -481 174 -544 8 -17 24 -56 35 -86 167 -435
489 -977 814 -1370 172 -209 442 -490 616 -639 47 -41 98 -85 113 -98 68 -59
262 -206 372 -284 102 -71 170 -115 385 -248 210 -129 672 -339 950 -431 126
-41 415 -120 442 -120 14 0 -7 17 -59 49 -462 280 -876 654 -1182 1066 -44 61
-84 115 -89 120 -32 44 -142 221 -195 315 -162 289 -312 656 -392 960 -24 92
-63 269 -70 320 -2 14 -10 72 -19 130 -22 154 -25 183 -33 315 -12 203 -5 575
12 675 2 14 6 50 9 80 5 55 21 169 31 225 66 354 142 603 266 864 30 62 53
101 58 95 5 -5 21 -54 35 -109 69 -276 182 -532 341 -770 186 -279 475 -563
761 -747 38 -24 226 -118 237 -118 10 0 -4 55 -35 135 -94 245 -192 558 -224
715 -2 14 -9 39 -14 55 -5 17 -18 77 -29 135 -29 146 -29 143 -37 197 -3 26
-8 55 -10 65 -1 9 -5 38 -9 65 -4 26 -8 59 -10 73 -2 14 -7 57 -11 95 -3 39
-8 77 -9 85 -8 44 -19 317 -18 475 1 232 17 503 38 625 2 14 7 50 10 81 3 31
7 66 10 77 2 11 6 36 9 56 3 20 9 52 12 72 3 20 8 46 10 58 2 11 7 35 9 51 47
267 164 677 280 975 126 324 305 676 476 932 21 33 39 64 39 69 0 5 4 9 8 9 5
0 13 10 19 23 25 54 281 386 419 542 96 110 386 401 510 513 175 158 319 263
327 239 2 -7 -3 -37 -11 -67 -32 -122 -70 -349 -79 -468 -13 -173 -7 -476 12
-587 8 -45 14 -85 20 -130 4 -22 18 -87 32 -145 112 -466 344 -905 709 -1337
68 -81 365 -377 449 -449 38 -32 76 -65 83 -72 8 -7 30 -25 50 -40 21 -15 39
-30 42 -33 3 -3 79 -61 170 -129 91 -68 167 -127 170 -131 3 -3 34 -30 70 -59
64 -53 268 -253 324 -319 291 -341 484 -713 591 -1141 18 -74 36 -153 39 -174
4 -21 8 -48 11 -60 9 -41 20 -133 34 -276 9 -96 7 -412 -4 -510 -22 -203 -65
-409 -121 -581 -21 -63 -39 -116 -39 -119 -1 -3 -5 -14 -10 -25 -4 -11 -16
-40 -25 -65 -36 -91 -116 -258 -183 -380 -81 -147 -269 -390 -469 -606 l-48
-51 58 8 c95 13 299 92 496 191 228 114 437 266 656 476 63 60 116 109 117
108 7 -6 -81 -326 -126 -464 -84 -256 -219 -560 -338 -760 -23 -41 -43 -75
-43 -77 0 -9 -131 -201 -208 -305 -127 -172 -220 -279 -382 -440 -240 -240
-529 -467 -807 -635 -63 -38 -56 -43 22 -20 27 9 59 17 70 19 87 16 391 116
570 188 851 342 1629 927 2208 1663 48 61 90 115 95 120 109 140 316 463 414
645 72 135 208 411 208 423 0 2 10 26 22 53 12 27 22 51 23 54 0 5 59 157 75
195 33 76 144 440 165 538 2 10 6 26 9 35 3 9 7 28 10 42 3 14 19 91 35 171
17 80 33 168 37 195 3 27 8 58 10 69 5 24 25 177 29 220 16 174 20 280 20 590
0 319 -7 506 -20 573 -2 12 -7 54 -10 94 -3 39 -8 74 -9 77 -2 3 -7 31 -10 61
-8 65 -10 82 -37 225 -11 61 -30 148 -41 195 -11 47 -21 92 -23 100 -45 215
-211 682 -341 958 -54 115 -185 366 -227 434 -12 20 -37 62 -56 95 -48 83
-124 197 -133 201 -5 2 -8 8 -8 14 0 5 -8 20 -17 33 -10 12 -25 33 -33 45 -78
117 -317 415 -440 550 -169 185 -435 437 -575 545 -22 17 -53 42 -70 56 -95
80 -343 255 -510 359 -159 99 -593 330 -620 330 -3 0 -30 12 -62 26 -217 99
-669 252 -853 289 -8 2 -33 8 -55 13 -51 13 -241 52 -279 58 -15 2 -35 5 -45
8 -9 3 -36 8 -61 11 -25 3 -56 8 -70 10 -61 9 -153 20 -268 30 -35 3 -78 9
-95 11 -36 6 -712 15 -718 10z"/>
<path d="M4911 1489 c-25 -5 -86 -22 -135 -38 -123 -40 -163 -50 -216 -52 -73
-2 -110 -17 -110 -43 0 -33 84 -158 164 -243 370 -397 968 -463 1429 -156 126
84 276 255 351 401 l17 32 -38 1 c-113 2 -214 23 -348 70 -73 26 -109 32 -190
35 -122 4 -186 -11 -308 -72 -48 -24 -98 -44 -111 -44 -14 0 -57 18 -98 39
-128 69 -282 96 -407 70z"/>
</g>
</svg>
